<mxfile host="app.diagrams.net" agent="Mozilla/5.0 (X11; Linux x86_64) AppleWebKit/537.36 (KHTML, like Gecko) Chrome/130.0.0.0 Safari/537.36" version="26.2.8">
  <diagram name="Pagina-1" id="8SdEnmyFroElRRDLjNz4">
    <mxGraphModel dx="1184" dy="628" grid="1" gridSize="10" guides="1" tooltips="1" connect="1" arrows="1" fold="1" page="1" pageScale="1" pageWidth="1169" pageHeight="1654" background="#ffffff" math="0" shadow="0" adaptiveColors="auto">
      <root>
        <mxCell id="0" />
        <mxCell id="1" parent="0" />
        <mxCell id="OvtKBhsxweFjwdeMQtUb-46" style="edgeStyle=orthogonalEdgeStyle;rounded=0;orthogonalLoop=1;jettySize=auto;html=1;endArrow=none;startFill=0;" edge="1" parent="1" source="OvtKBhsxweFjwdeMQtUb-1" target="OvtKBhsxweFjwdeMQtUb-6">
          <mxGeometry relative="1" as="geometry" />
        </mxCell>
        <mxCell id="OvtKBhsxweFjwdeMQtUb-1" value="Venditore" style="swimlane;fontStyle=0;childLayout=stackLayout;horizontal=1;startSize=26;fillColor=light-dark(transparent,#3F59FF);horizontalStack=0;resizeParent=1;resizeParentMax=0;resizeLast=0;collapsible=1;marginBottom=0;whiteSpace=wrap;html=1;" vertex="1" parent="1">
          <mxGeometry x="185" y="170" width="140" height="130" as="geometry" />
        </mxCell>
        <mxCell id="OvtKBhsxweFjwdeMQtUb-2" value="PI" style="text;strokeColor=none;fillColor=none;align=left;verticalAlign=top;spacingLeft=4;spacingRight=4;overflow=hidden;rotatable=0;points=[[0,0.5],[1,0.5]];portConstraint=eastwest;whiteSpace=wrap;html=1;" vertex="1" parent="OvtKBhsxweFjwdeMQtUb-1">
          <mxGeometry y="26" width="140" height="26" as="geometry" />
        </mxCell>
        <mxCell id="OvtKBhsxweFjwdeMQtUb-3" value="Indirizzo" style="text;strokeColor=none;fillColor=none;align=left;verticalAlign=top;spacingLeft=4;spacingRight=4;overflow=hidden;rotatable=0;points=[[0,0.5],[1,0.5]];portConstraint=eastwest;whiteSpace=wrap;html=1;" vertex="1" parent="OvtKBhsxweFjwdeMQtUb-1">
          <mxGeometry y="52" width="140" height="26" as="geometry" />
        </mxCell>
        <mxCell id="OvtKBhsxweFjwdeMQtUb-4" value="RagioneSociale" style="text;strokeColor=none;fillColor=none;align=left;verticalAlign=top;spacingLeft=4;spacingRight=4;overflow=hidden;rotatable=0;points=[[0,0.5],[1,0.5]];portConstraint=eastwest;whiteSpace=wrap;html=1;" vertex="1" parent="OvtKBhsxweFjwdeMQtUb-1">
          <mxGeometry y="78" width="140" height="26" as="geometry" />
        </mxCell>
        <mxCell id="OvtKBhsxweFjwdeMQtUb-5" value="Homepage" style="text;strokeColor=none;fillColor=none;align=left;verticalAlign=top;spacingLeft=4;spacingRight=4;overflow=hidden;rotatable=0;points=[[0,0.5],[1,0.5]];portConstraint=eastwest;whiteSpace=wrap;html=1;" vertex="1" parent="OvtKBhsxweFjwdeMQtUb-1">
          <mxGeometry y="104" width="140" height="26" as="geometry" />
        </mxCell>
        <mxCell id="OvtKBhsxweFjwdeMQtUb-6" value="Deposito" style="swimlane;fontStyle=0;childLayout=stackLayout;horizontal=1;startSize=26;fillColor=light-dark(transparent,#660000);horizontalStack=0;resizeParent=1;resizeParentMax=0;resizeLast=0;collapsible=1;marginBottom=0;whiteSpace=wrap;html=1;" vertex="1" parent="1">
          <mxGeometry x="185" y="470" width="140" height="130" as="geometry" />
        </mxCell>
        <mxCell id="OvtKBhsxweFjwdeMQtUb-81" value="IdDeposito" style="text;strokeColor=none;fillColor=none;align=left;verticalAlign=top;spacingLeft=4;spacingRight=4;overflow=hidden;rotatable=0;points=[[0,0.5],[1,0.5]];portConstraint=eastwest;whiteSpace=wrap;html=1;" vertex="1" parent="OvtKBhsxweFjwdeMQtUb-6">
          <mxGeometry y="26" width="140" height="26" as="geometry" />
        </mxCell>
        <mxCell id="OvtKBhsxweFjwdeMQtUb-7" value="Indirizzo" style="text;strokeColor=none;fillColor=none;align=left;verticalAlign=top;spacingLeft=4;spacingRight=4;overflow=hidden;rotatable=0;points=[[0,0.5],[1,0.5]];portConstraint=eastwest;whiteSpace=wrap;html=1;" vertex="1" parent="OvtKBhsxweFjwdeMQtUb-6">
          <mxGeometry y="52" width="140" height="26" as="geometry" />
        </mxCell>
        <mxCell id="OvtKBhsxweFjwdeMQtUb-8" value="Luogo" style="text;strokeColor=none;fillColor=none;align=left;verticalAlign=top;spacingLeft=4;spacingRight=4;overflow=hidden;rotatable=0;points=[[0,0.5],[1,0.5]];portConstraint=eastwest;whiteSpace=wrap;html=1;" vertex="1" parent="OvtKBhsxweFjwdeMQtUb-6">
          <mxGeometry y="78" width="140" height="26" as="geometry" />
        </mxCell>
        <mxCell id="OvtKBhsxweFjwdeMQtUb-9" value="Accesso" style="text;strokeColor=none;fillColor=none;align=left;verticalAlign=top;spacingLeft=4;spacingRight=4;overflow=hidden;rotatable=0;points=[[0,0.5],[1,0.5]];portConstraint=eastwest;whiteSpace=wrap;html=1;" vertex="1" parent="OvtKBhsxweFjwdeMQtUb-6">
          <mxGeometry y="104" width="140" height="26" as="geometry" />
        </mxCell>
        <mxCell id="OvtKBhsxweFjwdeMQtUb-57" style="edgeStyle=orthogonalEdgeStyle;rounded=0;orthogonalLoop=1;jettySize=auto;html=1;entryX=0.75;entryY=0;entryDx=0;entryDy=0;endArrow=none;startFill=0;" edge="1" parent="1" source="OvtKBhsxweFjwdeMQtUb-13" target="OvtKBhsxweFjwdeMQtUb-17">
          <mxGeometry relative="1" as="geometry" />
        </mxCell>
        <mxCell id="OvtKBhsxweFjwdeMQtUb-58" style="edgeStyle=orthogonalEdgeStyle;rounded=0;orthogonalLoop=1;jettySize=auto;html=1;entryX=0.25;entryY=0;entryDx=0;entryDy=0;endArrow=none;startFill=0;" edge="1" parent="1" source="OvtKBhsxweFjwdeMQtUb-13" target="OvtKBhsxweFjwdeMQtUb-31">
          <mxGeometry relative="1" as="geometry" />
        </mxCell>
        <mxCell id="OvtKBhsxweFjwdeMQtUb-13" value="TipoArticolo" style="swimlane;fontStyle=0;childLayout=stackLayout;horizontal=1;startSize=26;fillColor=light-dark(transparent,#32A632);horizontalStack=0;resizeParent=1;resizeParentMax=0;resizeLast=0;collapsible=1;marginBottom=0;whiteSpace=wrap;html=1;" vertex="1" parent="1">
          <mxGeometry x="745" y="120" width="140" height="130" as="geometry" />
        </mxCell>
        <mxCell id="OvtKBhsxweFjwdeMQtUb-82" value="IdArticolo" style="text;strokeColor=none;fillColor=none;align=left;verticalAlign=top;spacingLeft=4;spacingRight=4;overflow=hidden;rotatable=0;points=[[0,0.5],[1,0.5]];portConstraint=eastwest;whiteSpace=wrap;html=1;" vertex="1" parent="OvtKBhsxweFjwdeMQtUb-13">
          <mxGeometry y="26" width="140" height="26" as="geometry" />
        </mxCell>
        <mxCell id="OvtKBhsxweFjwdeMQtUb-14" value="Prodotto" style="text;strokeColor=none;fillColor=none;align=left;verticalAlign=top;spacingLeft=4;spacingRight=4;overflow=hidden;rotatable=0;points=[[0,0.5],[1,0.5]];portConstraint=eastwest;whiteSpace=wrap;html=1;" vertex="1" parent="OvtKBhsxweFjwdeMQtUb-13">
          <mxGeometry y="52" width="140" height="26" as="geometry" />
        </mxCell>
        <mxCell id="OvtKBhsxweFjwdeMQtUb-15" value="Versione" style="text;strokeColor=none;fillColor=none;align=left;verticalAlign=top;spacingLeft=4;spacingRight=4;overflow=hidden;rotatable=0;points=[[0,0.5],[1,0.5]];portConstraint=eastwest;whiteSpace=wrap;html=1;" vertex="1" parent="OvtKBhsxweFjwdeMQtUb-13">
          <mxGeometry y="78" width="140" height="26" as="geometry" />
        </mxCell>
        <mxCell id="OvtKBhsxweFjwdeMQtUb-16" value="Descrizione" style="text;strokeColor=none;fillColor=none;align=left;verticalAlign=top;spacingLeft=4;spacingRight=4;overflow=hidden;rotatable=0;points=[[0,0.5],[1,0.5]];portConstraint=eastwest;whiteSpace=wrap;html=1;" vertex="1" parent="OvtKBhsxweFjwdeMQtUb-13">
          <mxGeometry y="104" width="140" height="26" as="geometry" />
        </mxCell>
        <mxCell id="OvtKBhsxweFjwdeMQtUb-51" style="edgeStyle=orthogonalEdgeStyle;rounded=0;orthogonalLoop=1;jettySize=auto;html=1;endArrow=none;startFill=0;" edge="1" parent="OvtKBhsxweFjwdeMQtUb-13" source="OvtKBhsxweFjwdeMQtUb-13" target="OvtKBhsxweFjwdeMQtUb-14">
          <mxGeometry relative="1" as="geometry" />
        </mxCell>
        <mxCell id="OvtKBhsxweFjwdeMQtUb-17" value="HW" style="swimlane;fontStyle=0;childLayout=stackLayout;horizontal=1;startSize=26;fillColor=light-dark(transparent,#311E42);horizontalStack=0;resizeParent=1;resizeParentMax=0;resizeLast=0;collapsible=1;marginBottom=0;whiteSpace=wrap;html=1;" vertex="1" parent="1">
          <mxGeometry x="625" y="470" width="140" height="260" as="geometry" />
        </mxCell>
        <mxCell id="OvtKBhsxweFjwdeMQtUb-18" value="NSerie" style="text;strokeColor=none;fillColor=none;align=left;verticalAlign=top;spacingLeft=4;spacingRight=4;overflow=hidden;rotatable=0;points=[[0,0.5],[1,0.5]];portConstraint=eastwest;whiteSpace=wrap;html=1;" vertex="1" parent="OvtKBhsxweFjwdeMQtUb-17">
          <mxGeometry y="26" width="140" height="26" as="geometry" />
        </mxCell>
        <mxCell id="OvtKBhsxweFjwdeMQtUb-19" value="DataProduzione" style="text;strokeColor=none;fillColor=none;align=left;verticalAlign=top;spacingLeft=4;spacingRight=4;overflow=hidden;rotatable=0;points=[[0,0.5],[1,0.5]];portConstraint=eastwest;whiteSpace=wrap;html=1;" vertex="1" parent="OvtKBhsxweFjwdeMQtUb-17">
          <mxGeometry y="52" width="140" height="26" as="geometry" />
        </mxCell>
        <mxCell id="OvtKBhsxweFjwdeMQtUb-20" value="Produttore" style="text;strokeColor=none;fillColor=none;align=left;verticalAlign=top;spacingLeft=4;spacingRight=4;overflow=hidden;rotatable=0;points=[[0,0.5],[1,0.5]];portConstraint=eastwest;whiteSpace=wrap;html=1;" vertex="1" parent="OvtKBhsxweFjwdeMQtUb-17">
          <mxGeometry y="78" width="140" height="26" as="geometry" />
        </mxCell>
        <mxCell id="OvtKBhsxweFjwdeMQtUb-25" value="DataAcquisizione" style="text;strokeColor=none;fillColor=none;align=left;verticalAlign=top;spacingLeft=4;spacingRight=4;overflow=hidden;rotatable=0;points=[[0,0.5],[1,0.5]];portConstraint=eastwest;whiteSpace=wrap;html=1;" vertex="1" parent="OvtKBhsxweFjwdeMQtUb-17">
          <mxGeometry y="104" width="140" height="26" as="geometry" />
        </mxCell>
        <mxCell id="OvtKBhsxweFjwdeMQtUb-40" value="CodiceBarre" style="text;strokeColor=none;fillColor=none;align=left;verticalAlign=top;spacingLeft=4;spacingRight=4;overflow=hidden;rotatable=0;points=[[0,0.5],[1,0.5]];portConstraint=eastwest;whiteSpace=wrap;html=1;" vertex="1" parent="OvtKBhsxweFjwdeMQtUb-17">
          <mxGeometry y="130" width="140" height="26" as="geometry" />
        </mxCell>
        <mxCell id="OvtKBhsxweFjwdeMQtUb-41" value="Peso" style="text;strokeColor=none;fillColor=none;align=left;verticalAlign=top;spacingLeft=4;spacingRight=4;overflow=hidden;rotatable=0;points=[[0,0.5],[1,0.5]];portConstraint=eastwest;whiteSpace=wrap;html=1;" vertex="1" parent="OvtKBhsxweFjwdeMQtUb-17">
          <mxGeometry y="156" width="140" height="26" as="geometry" />
        </mxCell>
        <mxCell id="OvtKBhsxweFjwdeMQtUb-42" value="Dimensioni" style="text;strokeColor=none;fillColor=none;align=left;verticalAlign=top;spacingLeft=4;spacingRight=4;overflow=hidden;rotatable=0;points=[[0,0.5],[1,0.5]];portConstraint=eastwest;whiteSpace=wrap;html=1;" vertex="1" parent="OvtKBhsxweFjwdeMQtUb-17">
          <mxGeometry y="182" width="140" height="26" as="geometry" />
        </mxCell>
        <mxCell id="OvtKBhsxweFjwdeMQtUb-43" value="TipoConsegna" style="text;strokeColor=none;fillColor=none;align=left;verticalAlign=top;spacingLeft=4;spacingRight=4;overflow=hidden;rotatable=0;points=[[0,0.5],[1,0.5]];portConstraint=eastwest;whiteSpace=wrap;html=1;" vertex="1" parent="OvtKBhsxweFjwdeMQtUb-17">
          <mxGeometry y="208" width="140" height="26" as="geometry" />
        </mxCell>
        <mxCell id="OvtKBhsxweFjwdeMQtUb-44" value="Corriere" style="text;strokeColor=none;fillColor=none;align=left;verticalAlign=top;spacingLeft=4;spacingRight=4;overflow=hidden;rotatable=0;points=[[0,0.5],[1,0.5]];portConstraint=eastwest;whiteSpace=wrap;html=1;" vertex="1" parent="OvtKBhsxweFjwdeMQtUb-17">
          <mxGeometry y="234" width="140" height="26" as="geometry" />
        </mxCell>
        <mxCell id="OvtKBhsxweFjwdeMQtUb-31" value="SW" style="swimlane;fontStyle=0;childLayout=stackLayout;horizontal=1;startSize=26;fillColor=light-dark(transparent,#7D5A32);horizontalStack=0;resizeParent=1;resizeParentMax=0;resizeLast=0;collapsible=1;marginBottom=0;whiteSpace=wrap;html=1;" vertex="1" parent="1">
          <mxGeometry x="855" y="470" width="140" height="234" as="geometry" />
        </mxCell>
        <mxCell id="OvtKBhsxweFjwdeMQtUb-32" value="NSerie" style="text;strokeColor=none;fillColor=none;align=left;verticalAlign=top;spacingLeft=4;spacingRight=4;overflow=hidden;rotatable=0;points=[[0,0.5],[1,0.5]];portConstraint=eastwest;whiteSpace=wrap;html=1;" vertex="1" parent="OvtKBhsxweFjwdeMQtUb-31">
          <mxGeometry y="26" width="140" height="26" as="geometry" />
        </mxCell>
        <mxCell id="OvtKBhsxweFjwdeMQtUb-33" value="DataProduzione" style="text;strokeColor=none;fillColor=none;align=left;verticalAlign=top;spacingLeft=4;spacingRight=4;overflow=hidden;rotatable=0;points=[[0,0.5],[1,0.5]];portConstraint=eastwest;whiteSpace=wrap;html=1;" vertex="1" parent="OvtKBhsxweFjwdeMQtUb-31">
          <mxGeometry y="52" width="140" height="26" as="geometry" />
        </mxCell>
        <mxCell id="OvtKBhsxweFjwdeMQtUb-34" value="Produttore" style="text;strokeColor=none;fillColor=none;align=left;verticalAlign=top;spacingLeft=4;spacingRight=4;overflow=hidden;rotatable=0;points=[[0,0.5],[1,0.5]];portConstraint=eastwest;whiteSpace=wrap;html=1;" vertex="1" parent="OvtKBhsxweFjwdeMQtUb-31">
          <mxGeometry y="78" width="140" height="26" as="geometry" />
        </mxCell>
        <mxCell id="OvtKBhsxweFjwdeMQtUb-35" value="DataAcquisizione" style="text;strokeColor=none;fillColor=none;align=left;verticalAlign=top;spacingLeft=4;spacingRight=4;overflow=hidden;rotatable=0;points=[[0,0.5],[1,0.5]];portConstraint=eastwest;whiteSpace=wrap;html=1;" vertex="1" parent="OvtKBhsxweFjwdeMQtUb-31">
          <mxGeometry y="104" width="140" height="26" as="geometry" />
        </mxCell>
        <mxCell id="OvtKBhsxweFjwdeMQtUb-36" value="Path" style="text;strokeColor=none;fillColor=none;align=left;verticalAlign=top;spacingLeft=4;spacingRight=4;overflow=hidden;rotatable=0;points=[[0,0.5],[1,0.5]];portConstraint=eastwest;whiteSpace=wrap;html=1;" vertex="1" parent="OvtKBhsxweFjwdeMQtUb-31">
          <mxGeometry y="130" width="140" height="26" as="geometry" />
        </mxCell>
        <mxCell id="OvtKBhsxweFjwdeMQtUb-37" value="SitoDownload" style="text;strokeColor=none;fillColor=none;align=left;verticalAlign=top;spacingLeft=4;spacingRight=4;overflow=hidden;rotatable=0;points=[[0,0.5],[1,0.5]];portConstraint=eastwest;whiteSpace=wrap;html=1;" vertex="1" parent="OvtKBhsxweFjwdeMQtUb-31">
          <mxGeometry y="156" width="140" height="26" as="geometry" />
        </mxCell>
        <mxCell id="OvtKBhsxweFjwdeMQtUb-38" value="Dim" style="text;strokeColor=none;fillColor=none;align=left;verticalAlign=top;spacingLeft=4;spacingRight=4;overflow=hidden;rotatable=0;points=[[0,0.5],[1,0.5]];portConstraint=eastwest;whiteSpace=wrap;html=1;" vertex="1" parent="OvtKBhsxweFjwdeMQtUb-31">
          <mxGeometry y="182" width="140" height="26" as="geometry" />
        </mxCell>
        <mxCell id="OvtKBhsxweFjwdeMQtUb-39" value="Formato" style="text;strokeColor=none;fillColor=none;align=left;verticalAlign=top;spacingLeft=4;spacingRight=4;overflow=hidden;rotatable=0;points=[[0,0.5],[1,0.5]];portConstraint=eastwest;whiteSpace=wrap;html=1;" vertex="1" parent="OvtKBhsxweFjwdeMQtUb-31">
          <mxGeometry y="208" width="140" height="26" as="geometry" />
        </mxCell>
        <mxCell id="OvtKBhsxweFjwdeMQtUb-45" style="edgeStyle=orthogonalEdgeStyle;rounded=0;orthogonalLoop=1;jettySize=auto;html=1;endArrow=none;startFill=0;" edge="1" parent="1" source="OvtKBhsxweFjwdeMQtUb-81" target="OvtKBhsxweFjwdeMQtUb-18">
          <mxGeometry relative="1" as="geometry">
            <mxPoint x="435" y="510" as="sourcePoint" />
          </mxGeometry>
        </mxCell>
        <mxCell id="OvtKBhsxweFjwdeMQtUb-55" style="edgeStyle=orthogonalEdgeStyle;rounded=0;orthogonalLoop=1;jettySize=auto;html=1;entryX=0.5;entryY=0;entryDx=0;entryDy=0;endArrow=none;startFill=0;" edge="1" parent="1" source="OvtKBhsxweFjwdeMQtUb-5" target="OvtKBhsxweFjwdeMQtUb-17">
          <mxGeometry relative="1" as="geometry" />
        </mxCell>
        <mxCell id="OvtKBhsxweFjwdeMQtUb-56" style="edgeStyle=orthogonalEdgeStyle;rounded=0;orthogonalLoop=1;jettySize=auto;html=1;entryX=0.5;entryY=0;entryDx=0;entryDy=0;endArrow=none;startFill=0;" edge="1" parent="1" source="OvtKBhsxweFjwdeMQtUb-4" target="OvtKBhsxweFjwdeMQtUb-31">
          <mxGeometry relative="1" as="geometry" />
        </mxCell>
        <mxCell id="OvtKBhsxweFjwdeMQtUb-60" value="custodito" style="text;html=1;align=center;verticalAlign=middle;whiteSpace=wrap;rounded=0;" vertex="1" parent="1">
          <mxGeometry x="325" y="480" width="60" height="30" as="geometry" />
        </mxCell>
        <mxCell id="OvtKBhsxweFjwdeMQtUb-61" value="ospita" style="text;html=1;align=center;verticalAlign=middle;whiteSpace=wrap;rounded=0;" vertex="1" parent="1">
          <mxGeometry x="565" y="480" width="60" height="30" as="geometry" />
        </mxCell>
        <mxCell id="OvtKBhsxweFjwdeMQtUb-62" value="1" style="text;html=1;align=center;verticalAlign=middle;whiteSpace=wrap;rounded=0;" vertex="1" parent="1">
          <mxGeometry x="325" y="510" width="60" height="30" as="geometry" />
        </mxCell>
        <mxCell id="OvtKBhsxweFjwdeMQtUb-63" value="(1,*)" style="text;html=1;align=center;verticalAlign=middle;whiteSpace=wrap;rounded=0;" vertex="1" parent="1">
          <mxGeometry x="565" y="510" width="60" height="30" as="geometry" />
        </mxCell>
        <mxCell id="OvtKBhsxweFjwdeMQtUb-64" value="proprietà" style="text;html=1;align=center;verticalAlign=middle;whiteSpace=wrap;rounded=0;" vertex="1" parent="1">
          <mxGeometry x="325" y="290" width="60" height="30" as="geometry" />
        </mxCell>
        <mxCell id="OvtKBhsxweFjwdeMQtUb-65" value="gestisce" style="text;html=1;align=center;verticalAlign=middle;whiteSpace=wrap;rounded=0;" vertex="1" parent="1">
          <mxGeometry x="635" y="440" width="60" height="30" as="geometry" />
        </mxCell>
        <mxCell id="OvtKBhsxweFjwdeMQtUb-66" value="gestisce" style="text;html=1;align=center;verticalAlign=middle;whiteSpace=wrap;rounded=0;" vertex="1" parent="1">
          <mxGeometry x="925" y="440" width="60" height="30" as="geometry" />
        </mxCell>
        <mxCell id="OvtKBhsxweFjwdeMQtUb-67" value="proprietà" style="text;html=1;align=center;verticalAlign=middle;whiteSpace=wrap;rounded=0;" vertex="1" parent="1">
          <mxGeometry x="325" y="260" width="60" height="30" as="geometry" />
        </mxCell>
        <mxCell id="OvtKBhsxweFjwdeMQtUb-68" value="1" style="text;html=1;align=center;verticalAlign=middle;whiteSpace=wrap;rounded=0;" vertex="1" parent="1">
          <mxGeometry x="375" y="290" width="60" height="30" as="geometry" />
        </mxCell>
        <mxCell id="OvtKBhsxweFjwdeMQtUb-69" value="1" style="text;html=1;align=center;verticalAlign=middle;whiteSpace=wrap;rounded=0;" vertex="1" parent="1">
          <mxGeometry x="375" y="260" width="60" height="30" as="geometry" />
        </mxCell>
        <mxCell id="OvtKBhsxweFjwdeMQtUb-71" value="(1,*)" style="text;html=1;align=center;verticalAlign=middle;whiteSpace=wrap;rounded=0;" vertex="1" parent="1">
          <mxGeometry x="635" y="420" width="60" height="30" as="geometry" />
        </mxCell>
        <mxCell id="OvtKBhsxweFjwdeMQtUb-72" value="(1,*)" style="text;html=1;align=center;verticalAlign=middle;whiteSpace=wrap;rounded=0;" vertex="1" parent="1">
          <mxGeometry x="925" y="420" width="60" height="30" as="geometry" />
        </mxCell>
        <mxCell id="OvtKBhsxweFjwdeMQtUb-73" value="esemplare" style="text;html=1;align=center;verticalAlign=middle;whiteSpace=wrap;rounded=0;" vertex="1" parent="1">
          <mxGeometry x="735" y="440" width="60" height="30" as="geometry" />
        </mxCell>
        <mxCell id="OvtKBhsxweFjwdeMQtUb-74" value="esemplare" style="text;html=1;align=center;verticalAlign=middle;whiteSpace=wrap;rounded=0;" vertex="1" parent="1">
          <mxGeometry x="825" y="440" width="60" height="30" as="geometry" />
        </mxCell>
        <mxCell id="OvtKBhsxweFjwdeMQtUb-75" value="(0,*)" style="text;html=1;align=center;verticalAlign=middle;whiteSpace=wrap;rounded=0;" vertex="1" parent="1">
          <mxGeometry x="735" y="420" width="60" height="30" as="geometry" />
        </mxCell>
        <mxCell id="OvtKBhsxweFjwdeMQtUb-76" value="(0,*)" style="text;html=1;align=center;verticalAlign=middle;whiteSpace=wrap;rounded=0;" vertex="1" parent="1">
          <mxGeometry x="825" y="420" width="60" height="30" as="geometry" />
        </mxCell>
        <mxCell id="OvtKBhsxweFjwdeMQtUb-77" value="descritto_da" style="text;html=1;align=center;verticalAlign=middle;whiteSpace=wrap;rounded=0;" vertex="1" parent="1">
          <mxGeometry x="745" y="270" width="60" height="30" as="geometry" />
        </mxCell>
        <mxCell id="OvtKBhsxweFjwdeMQtUb-78" value="1" style="text;html=1;align=center;verticalAlign=middle;whiteSpace=wrap;rounded=0;" vertex="1" parent="1">
          <mxGeometry x="795" y="270" width="60" height="30" as="geometry" />
        </mxCell>
        <mxCell id="OvtKBhsxweFjwdeMQtUb-79" value="compatibile" style="text;html=1;align=center;verticalAlign=middle;whiteSpace=wrap;rounded=0;" vertex="1" parent="1">
          <mxGeometry x="915" y="160" width="60" height="30" as="geometry" />
        </mxCell>
        <mxCell id="OvtKBhsxweFjwdeMQtUb-80" value="comp" style="text;html=1;align=center;verticalAlign=middle;whiteSpace=wrap;rounded=0;" vertex="1" parent="1">
          <mxGeometry x="765" y="90" width="60" height="30" as="geometry" />
        </mxCell>
        <mxCell id="OvtKBhsxweFjwdeMQtUb-83" value="(0,*)" style="text;html=1;align=center;verticalAlign=middle;whiteSpace=wrap;rounded=0;" vertex="1" parent="1">
          <mxGeometry x="915" y="140" width="60" height="30" as="geometry" />
        </mxCell>
        <mxCell id="OvtKBhsxweFjwdeMQtUb-84" value="(0,*)" style="text;html=1;align=center;verticalAlign=middle;whiteSpace=wrap;rounded=0;" vertex="1" parent="1">
          <mxGeometry x="735" y="90" width="60" height="30" as="geometry" />
        </mxCell>
        <mxCell id="OvtKBhsxweFjwdeMQtUb-90" value="&lt;h1 style=&quot;margin-top: 0px;&quot;&gt;Scelte ristrutturazione&lt;/h1&gt;&lt;p&gt;&lt;/p&gt;&lt;ol&gt;&lt;li&gt;&lt;font style=&quot;font-size: 14px;&quot;&gt;Si è scelto di aggiungere due attributi IdDeposito e IdArticolo rispettivamente per le classi Deposito e Articolo in quanto in fase di proggettazione dello schema logico è risultato evidente che fossero necessarie due chiavi surrogate per un&#39;identificazione ed un accesso più facile ai record di tali classi.&lt;/font&gt;&lt;/li&gt;&lt;li&gt;&lt;font style=&quot;font-size: 14px;&quot;&gt;Si è scelto di collassare la classe ArticoloFisico nelle due specializzazioni in quanto tale approccio forniva il minor numero tra relazioni, vincoli e attributi nulli.&lt;/font&gt;&lt;/li&gt;&lt;/ol&gt;&lt;p&gt;&lt;/p&gt;" style="text;html=1;whiteSpace=wrap;overflow=hidden;rounded=0;" vertex="1" parent="1">
          <mxGeometry x="70" y="1143" width="500" height="189" as="geometry" />
        </mxCell>
        <mxCell id="OvtKBhsxweFjwdeMQtUb-93" value="&lt;h1 style=&quot;margin-top: 0px;&quot;&gt;Schema Logico&lt;/h1&gt;&lt;div&gt;&lt;ul&gt;&lt;li&gt;&lt;font style=&quot;font-size: 15px;&quot;&gt;Venditore{&lt;b&gt;&lt;font style=&quot;color: light-dark(rgb(0, 0, 0), rgb(63, 89, 255));&quot;&gt;&lt;u&gt;PI&lt;/u&gt;&lt;/font&gt;&lt;/b&gt;, Indirizzo, RagioneSociale, Homepage}&lt;/font&gt;&lt;/li&gt;&lt;/ul&gt;&lt;ul&gt;&lt;li&gt;&lt;font style=&quot;font-size: 15px;&quot;&gt;Deposito{&lt;b&gt;&lt;font style=&quot;color: light-dark(rgb(0, 0, 0), rgb(179, 0, 0));&quot;&gt;&lt;u style=&quot;&quot;&gt;IdDeposito&lt;/u&gt;&lt;/font&gt;&lt;/b&gt;, &lt;b&gt;&lt;font style=&quot;color: light-dark(rgb(0, 0, 0), rgb(63, 89, 255));&quot;&gt;&lt;u&gt;PI&lt;/u&gt;&lt;/font&gt;&lt;/b&gt;, Indirizzo, Luogo, Accesso}&lt;/font&gt;&lt;/li&gt;&lt;/ul&gt;&lt;ul&gt;&lt;li&gt;&lt;span style=&quot;font-size: 15px; background-color: transparent; color: light-dark(rgb(0, 0, 0), rgb(255, 255, 255));&quot;&gt;TipoArticolo{&lt;/span&gt;&lt;b style=&quot;font-size: 15px; background-color: transparent; color: light-dark(rgb(0, 0, 0), rgb(255, 255, 255));&quot;&gt;&lt;font style=&quot;color: light-dark(rgb(0, 0, 0), rgb(50, 166, 50));&quot;&gt;&lt;u&gt;IdArticolo&lt;/u&gt;&lt;/font&gt;&lt;/b&gt;&lt;span style=&quot;font-size: 15px; background-color: transparent; color: light-dark(rgb(0, 0, 0), rgb(255, 255, 255));&quot;&gt;, Prodotto, Versione, Descrizione}&lt;/span&gt;&lt;/li&gt;&lt;/ul&gt;&lt;ul&gt;&lt;li&gt;&lt;font style=&quot;font-size: 15px;&quot;&gt;HW{&lt;b&gt;&lt;font style=&quot;color: light-dark(rgb(0, 0, 0), rgb(50, 166, 50));&quot;&gt;&lt;u&gt;IdArticolo&lt;/u&gt;&lt;/font&gt;&lt;/b&gt;, &lt;font style=&quot;color: light-dark(rgb(0, 0, 0), rgb(179, 0, 0));&quot;&gt;&lt;b&gt;&lt;u&gt;IdDeposito&lt;/u&gt;&lt;/b&gt;&lt;/font&gt;, &lt;font style=&quot;color: light-dark(rgb(0, 0, 0), rgb(63, 89, 255));&quot;&gt;&lt;u&gt;&lt;b&gt;PIVenditore&lt;/b&gt;&lt;/u&gt;&lt;/font&gt;,&amp;nbsp;&lt;font style=&quot;color: light-dark(rgb(0, 0, 0), rgb(252, 252, 252));&quot;&gt;NSerie&lt;/font&gt;, DataProduzione, Produttore, DataAcquisizione, CodiceBarre, Peso, Dimensioni, TipoConsegna, Corriere}&lt;/font&gt;&lt;/li&gt;&lt;/ul&gt;&lt;ul&gt;&lt;li&gt;&lt;font style=&quot;font-size: 15px;&quot;&gt;SW{&lt;font style=&quot;color: light-dark(rgb(0, 0, 0), rgb(50, 166, 50));&quot;&gt;&lt;u&gt;&lt;b&gt;IdArticolo&lt;/b&gt;&lt;/u&gt;&lt;/font&gt;,&amp;nbsp;&lt;font style=&quot;color: light-dark(rgb(0, 0, 0), rgb(63, 89, 255));&quot;&gt;&lt;u&gt;&lt;b&gt;PIVenditore&lt;/b&gt;&lt;/u&gt;&lt;/font&gt;, NSerie, DataProduzione, Produttore, DataAcquisizione, Path, SitoDownload, Dim, Formato}&lt;/font&gt;&lt;/li&gt;&lt;/ul&gt;&lt;ul&gt;&lt;li&gt;&lt;font style=&quot;font-size: 15px;&quot;&gt;Compatibilità{&lt;font style=&quot;color: light-dark(rgb(0, 0, 0), rgb(50, 166, 50));&quot;&gt;&lt;b&gt;&lt;u&gt;IdArticolo1&lt;/u&gt;&lt;/b&gt;&lt;/font&gt;, &lt;font style=&quot;color: light-dark(rgb(0, 0, 0), rgb(50, 166, 50));&quot;&gt;&lt;b&gt;&lt;u&gt;IdArticolo2&lt;/u&gt;&lt;/b&gt;&lt;/font&gt;}&lt;/font&gt;&lt;/li&gt;&lt;/ul&gt;&lt;ul&gt;&lt;li&gt;&lt;font style=&quot;font-size: 15px;&quot;&gt;Catalogo{&lt;font style=&quot;color: light-dark(rgb(0, 0, 0), rgb(63, 89, 255));&quot;&gt;&lt;b&gt;&lt;u&gt;PIVenditore&lt;/u&gt;&lt;/b&gt;&lt;/font&gt;, &lt;font style=&quot;color: light-dark(rgb(0, 0, 0), rgb(50, 166, 50));&quot;&gt;&lt;u&gt;&lt;b&gt;IdArticolo&lt;/b&gt;&lt;/u&gt;&lt;/font&gt;}&lt;/font&gt;&lt;/li&gt;&lt;/ul&gt;&lt;/div&gt;" style="text;html=1;whiteSpace=wrap;overflow=hidden;rounded=0;align=left;" vertex="1" parent="1">
          <mxGeometry x="45" y="800" width="1100" height="263" as="geometry" />
        </mxCell>
        <mxCell id="OvtKBhsxweFjwdeMQtUb-94" style="edgeStyle=orthogonalEdgeStyle;rounded=0;orthogonalLoop=1;jettySize=auto;html=1;entryX=0;entryY=0.5;entryDx=0;entryDy=0;endArrow=none;startFill=0;" edge="1" parent="1" source="OvtKBhsxweFjwdeMQtUb-2" target="OvtKBhsxweFjwdeMQtUb-14">
          <mxGeometry relative="1" as="geometry" />
        </mxCell>
        <mxCell id="OvtKBhsxweFjwdeMQtUb-95" value="(1,*)" style="text;html=1;align=center;verticalAlign=middle;whiteSpace=wrap;rounded=0;" vertex="1" parent="1">
          <mxGeometry x="325" y="180" width="60" height="30" as="geometry" />
        </mxCell>
        <mxCell id="OvtKBhsxweFjwdeMQtUb-96" value="(1,*)" style="text;html=1;align=center;verticalAlign=middle;whiteSpace=wrap;rounded=0;" vertex="1" parent="1">
          <mxGeometry x="685" y="160" width="60" height="30" as="geometry" />
        </mxCell>
        <mxCell id="OvtKBhsxweFjwdeMQtUb-97" value="Ha" style="text;html=1;align=center;verticalAlign=middle;whiteSpace=wrap;rounded=0;" vertex="1" parent="1">
          <mxGeometry x="650" y="160" width="60" height="30" as="geometry" />
        </mxCell>
        <mxCell id="OvtKBhsxweFjwdeMQtUb-98" value="In" style="text;html=1;align=center;verticalAlign=middle;whiteSpace=wrap;rounded=0;" vertex="1" parent="1">
          <mxGeometry x="365" y="180" width="60" height="30" as="geometry" />
        </mxCell>
        <mxCell id="OvtKBhsxweFjwdeMQtUb-99" value="" style="endArrow=none;html=1;rounded=0;strokeColor=light-dark(#000000,#32A632);" edge="1" parent="1">
          <mxGeometry width="50" height="50" relative="1" as="geometry">
            <mxPoint x="115" y="991" as="sourcePoint" />
            <mxPoint x="185" y="991" as="targetPoint" />
          </mxGeometry>
        </mxCell>
        <mxCell id="OvtKBhsxweFjwdeMQtUb-100" value="" style="endArrow=none;html=1;rounded=0;strokeColor=light-dark(#000000,#32A632);" edge="1" parent="1">
          <mxGeometry width="50" height="50" relative="1" as="geometry">
            <mxPoint x="116" y="961" as="sourcePoint" />
            <mxPoint x="186" y="961" as="targetPoint" />
          </mxGeometry>
        </mxCell>
        <mxCell id="OvtKBhsxweFjwdeMQtUb-106" value="" style="endArrow=none;html=1;rounded=0;strokeColor=light-dark(#000000,#B30000);" edge="1" parent="1">
          <mxGeometry width="50" height="50" relative="1" as="geometry">
            <mxPoint x="194" y="961" as="sourcePoint" />
            <mxPoint x="275" y="961" as="targetPoint" />
          </mxGeometry>
        </mxCell>
        <mxCell id="OvtKBhsxweFjwdeMQtUb-107" value="" style="endArrow=none;html=1;rounded=0;strokeColor=light-dark(#000000,#3F59FF);" edge="1" parent="1">
          <mxGeometry width="50" height="50" relative="1" as="geometry">
            <mxPoint x="193" y="990" as="sourcePoint" />
            <mxPoint x="282" y="991" as="targetPoint" />
          </mxGeometry>
        </mxCell>
        <mxCell id="OvtKBhsxweFjwdeMQtUb-108" value="" style="endArrow=none;html=1;rounded=0;strokeColor=light-dark(#000000,#3F59FF);" edge="1" parent="1">
          <mxGeometry width="50" height="50" relative="1" as="geometry">
            <mxPoint x="281" y="960" as="sourcePoint" />
            <mxPoint x="367" y="961" as="targetPoint" />
          </mxGeometry>
        </mxCell>
        <mxCell id="OvtKBhsxweFjwdeMQtUb-109" value="reparto" style="text;html=1;align=center;verticalAlign=middle;whiteSpace=wrap;rounded=0;" vertex="1" parent="1">
          <mxGeometry x="195" y="300" width="60" height="30" as="geometry" />
        </mxCell>
        <mxCell id="OvtKBhsxweFjwdeMQtUb-110" value="usa" style="text;html=1;align=center;verticalAlign=middle;whiteSpace=wrap;rounded=0;" vertex="1" parent="1">
          <mxGeometry x="195" y="440" width="60" height="30" as="geometry" />
        </mxCell>
        <mxCell id="OvtKBhsxweFjwdeMQtUb-112" value="(1,*)" style="text;html=1;align=center;verticalAlign=middle;whiteSpace=wrap;rounded=0;" vertex="1" parent="1">
          <mxGeometry x="255" y="440" width="60" height="30" as="geometry" />
        </mxCell>
        <mxCell id="OvtKBhsxweFjwdeMQtUb-113" value="1" style="text;html=1;align=center;verticalAlign=middle;whiteSpace=wrap;rounded=0;" vertex="1" parent="1">
          <mxGeometry x="245" y="300" width="60" height="30" as="geometry" />
        </mxCell>
        <mxCell id="OvtKBhsxweFjwdeMQtUb-114" value="" style="endArrow=none;html=1;rounded=0;strokeColor=light-dark(#000000,#3F59FF);" edge="1" parent="1">
          <mxGeometry width="50" height="50" relative="1" as="geometry">
            <mxPoint x="235" y="900" as="sourcePoint" />
            <mxPoint x="252" y="900" as="targetPoint" />
          </mxGeometry>
        </mxCell>
        <mxCell id="OvtKBhsxweFjwdeMQtUb-115" value="" style="endArrow=none;html=1;rounded=0;strokeColor=light-dark(#000000,#32A632);" edge="1" parent="1">
          <mxGeometry width="50" height="50" relative="1" as="geometry">
            <mxPoint x="178" y="1021" as="sourcePoint" />
            <mxPoint x="257" y="1021" as="targetPoint" />
          </mxGeometry>
        </mxCell>
        <mxCell id="OvtKBhsxweFjwdeMQtUb-116" value="" style="endArrow=none;html=1;rounded=0;strokeColor=light-dark(#000000,#32A632);" edge="1" parent="1">
          <mxGeometry width="50" height="50" relative="1" as="geometry">
            <mxPoint x="266" y="1021" as="sourcePoint" />
            <mxPoint x="345" y="1021" as="targetPoint" />
          </mxGeometry>
        </mxCell>
        <mxCell id="OvtKBhsxweFjwdeMQtUb-117" value="" style="endArrow=none;html=1;rounded=0;strokeColor=light-dark(#000000,#3F59FF);" edge="1" parent="1">
          <mxGeometry width="50" height="50" relative="1" as="geometry">
            <mxPoint x="150.5" y="1051" as="sourcePoint" />
            <mxPoint x="239.5" y="1052" as="targetPoint" />
          </mxGeometry>
        </mxCell>
        <mxCell id="OvtKBhsxweFjwdeMQtUb-118" value="" style="endArrow=none;html=1;rounded=0;strokeColor=light-dark(#000000,#32A632);" edge="1" parent="1">
          <mxGeometry width="50" height="50" relative="1" as="geometry">
            <mxPoint x="243" y="1051" as="sourcePoint" />
            <mxPoint x="313" y="1051" as="targetPoint" />
          </mxGeometry>
        </mxCell>
        <mxCell id="OvtKBhsxweFjwdeMQtUb-119" value="&lt;h1 style=&quot;margin-top: 0px;&quot;&gt;Vincoli&lt;/h1&gt;&lt;p&gt;&lt;/p&gt;&lt;font style=&quot;font-size: 14px;&quot;&gt;&lt;span style=&quot;white-space: pre;&quot;&gt;&#x9;&lt;/span&gt;Oltre ai regolari vincoli di dominio, chiave, integrità di identità e di integrità &lt;span style=&quot;white-space: pre;&quot;&gt;&#x9;&lt;/span&gt;referenziale, non sono stati introdotti ulteriori vincoli.&lt;/font&gt;" style="text;html=1;whiteSpace=wrap;overflow=hidden;rounded=0;" vertex="1" parent="1">
          <mxGeometry x="615" y="1143" width="520" height="189" as="geometry" />
        </mxCell>
        <mxCell id="OvtKBhsxweFjwdeMQtUb-121" value="&lt;h1 style=&quot;margin-top: 0px;&quot;&gt;UML Ristrutturato&lt;/h1&gt;" style="text;html=1;whiteSpace=wrap;overflow=hidden;rounded=0;" vertex="1" parent="1">
          <mxGeometry x="65" y="30" width="280" height="120" as="geometry" />
        </mxCell>
      </root>
    </mxGraphModel>
  </diagram>
</mxfile>
